<svg aria-hidden="true" style="position: absolute; width: 0; height: 0; overflow: hidden;" version="1.1" xmlns="http://www.w3.org/2000/svg" xmlns:xlink="http://www.w3.org/1999/xlink">
<defs>
<symbol id="icon-phone-call" viewBox="0 0 32 32">
<path fill="#00b2ff" style="fill: var(--color1, #00b2ff)" d="M25.145 19.67c-0.63-0.655-1.39-1.005-2.195-1.005-0.799 0-1.565 0.344-2.221 0.999l-2.052 2.042c-0.169-0.091-0.338-0.175-0.5-0.259-0.234-0.117-0.455-0.227-0.643-0.344-1.922-1.219-3.669-2.807-5.344-4.863-0.812-1.024-1.357-1.887-1.753-2.762 0.532-0.486 1.026-0.992 1.506-1.478 0.182-0.182 0.364-0.37 0.545-0.551 1.364-1.362 1.364-3.125 0-4.487l-1.773-1.77c-0.201-0.201-0.409-0.408-0.604-0.616-0.39-0.402-0.799-0.817-1.221-1.206-0.63-0.622-1.383-0.953-2.175-0.953s-1.558 0.331-2.208 0.953c-0.006 0.006-0.006 0.006-0.013 0.013l-2.208 2.224c-0.831 0.83-1.305 1.841-1.409 3.015-0.156 1.893 0.403 3.657 0.831 4.811 1.052 2.833 2.623 5.459 4.967 8.273 2.844 3.391 6.266 6.069 10.175 7.956 1.493 0.707 3.487 1.543 5.714 1.686 0.136 0.007 0.279 0.013 0.409 0.013 1.5 0 2.76-0.538 3.747-1.608 0.006-0.013 0.019-0.019 0.026-0.032 0.338-0.408 0.727-0.778 1.136-1.174 0.279-0.266 0.565-0.545 0.844-0.836 0.643-0.668 0.98-1.446 0.98-2.243 0-0.804-0.344-1.576-1-2.224l-3.565-3.572zM27.47 26.497c-0.006 0-0.006 0.006 0 0-0.253 0.272-0.513 0.519-0.792 0.791-0.422 0.402-0.851 0.823-1.253 1.297-0.656 0.7-1.428 1.031-2.441 1.031-0.097 0-0.201 0-0.299-0.007-1.928-0.123-3.721-0.875-5.065-1.517-3.675-1.776-6.902-4.299-9.584-7.495-2.214-2.665-3.695-5.129-4.675-7.774-0.604-1.614-0.825-2.872-0.727-4.059 0.065-0.759 0.357-1.388 0.896-1.926l2.214-2.211c0.318-0.298 0.656-0.46 0.987-0.46 0.409 0 0.74 0.246 0.948 0.454 0.006 0.006 0.013 0.013 0.019 0.019 0.396 0.37 0.773 0.752 1.169 1.161 0.201 0.207 0.409 0.415 0.617 0.629l1.773 1.77c0.688 0.687 0.688 1.323 0 2.010-0.188 0.188-0.37 0.376-0.558 0.558-0.545 0.558-1.065 1.076-1.63 1.582-0.013 0.013-0.026 0.019-0.032 0.032-0.558 0.558-0.454 1.102-0.338 1.472 0.007 0.019 0.013 0.039 0.019 0.058 0.461 1.115 1.11 2.166 2.097 3.417l0.007 0.007c1.792 2.204 3.682 3.923 5.766 5.239 0.266 0.169 0.539 0.305 0.799 0.434 0.234 0.117 0.455 0.227 0.643 0.344 0.026 0.013 0.052 0.032 0.078 0.045 0.221 0.11 0.429 0.162 0.643 0.162 0.539 0 0.877-0.337 0.987-0.447l2.221-2.217c0.221-0.22 0.571-0.486 0.98-0.486 0.403 0 0.734 0.253 0.935 0.473 0.007 0.007 0.007 0.007 0.013 0.013l3.578 3.572c0.669 0.661 0.669 1.342 0.006 2.029z"></path>
<path fill="#00b2ff" style="fill: var(--color1, #00b2ff)" d="M17.457 7.947c1.701 0.285 3.247 1.089 4.48 2.321s2.032 2.775 2.324 4.474c0.071 0.428 0.442 0.726 0.864 0.726 0.052 0 0.097-0.007 0.149-0.013 0.48-0.078 0.799-0.532 0.721-1.011-0.351-2.055-1.325-3.929-2.812-5.414s-3.363-2.457-5.422-2.807c-0.48-0.078-0.928 0.24-1.013 0.713s0.227 0.934 0.708 1.011z"></path>
<path fill="#00b2ff" style="fill: var(--color1, #00b2ff)" d="M31.56 14.191c-0.578-3.384-2.175-6.464-4.63-8.915s-5.539-4.046-8.928-4.623c-0.474-0.084-0.922 0.24-1.006 0.713-0.078 0.48 0.24 0.927 0.721 1.011 3.026 0.512 5.785 1.945 7.98 4.13 2.195 2.191 3.623 4.947 4.136 7.968 0.071 0.428 0.442 0.726 0.864 0.726 0.052 0 0.097-0.007 0.149-0.013 0.474-0.071 0.799-0.525 0.714-0.999z"></path>
</symbol>
<symbol id="icon-vk" viewBox="0 0 32 32">
<path fill="#cdcdcd" style="fill: var(--color2, #cdcdcd)" d="M23.081 18.521c-1.314-1.214-1.408-1.214-0.282-2.615 1.408-1.774 3.285-4.015 1.596-4.015h-3.098c-0.563 0-0.657 0.373-0.845 0.84-0.751 1.774-2.253 4.108-2.816 3.735s-0.282-1.774-0.282-4.015c0.094-0.28 0-0.56-0.188-0.747s-0.469-0.373-0.751-0.373c-0.469-0.093-0.939-0.187-1.408-0.187-1.784 0-3.004 0.747-2.347 0.84 1.22 0.187 1.126 2.801 0.845 3.922-0.469 1.961-2.347-1.494-3.192-3.268-0.094-0.467-0.469-0.747-0.939-0.747h-2.441c-0.375 0-0.657 0.093-0.657 0.373 0 0.467 2.347 5.042 4.506 7.376 2.159 2.241 4.318 2.054 5.82 2.054 0.188 0 0.375-0.093 0.469-0.187s0.188-0.28 0.188-0.467c0-1.494 0.563-2.241 1.596-1.214 1.126 1.12 1.408 1.867 2.816 1.867h2.534c0.657 0 0.845-0.187 0.845-0.467 0.094-0.654-1.033-1.867-1.971-2.708zM16.417 0.594c8.73 0.187 15.676 7.19 15.582 15.687s-7.322 15.22-16.052 15.126c-8.824-0.093-15.864-6.91-15.864-15.406 0.094-8.59 7.416-15.5 16.333-15.406z"></path>
</symbol>
<symbol id="icon-students" viewBox="0 0 32 32">
<path fill="#cdcdcd" style="fill: var(--color2, #cdcdcd)" d="M16.416 13.579c1.204 0 2.14-0.99 2.118-2.069 0.022-1.079-0.892-2.091-2.095-2.091-1.159 0-2.118 0.924-2.118 2.069s0.936 2.091 2.095 2.091z"></path>
<path fill="#cdcdcd" style="fill: var(--color2, #cdcdcd)" d="M16.238 0.593c-8.604 0-15.604 6.911-15.604 15.407 0 8.518 6.999 15.407 15.604 15.407 8.627 0 15.604-6.911 15.604-15.407 0.022-8.496-6.977-15.407-15.604-15.407zM16.461 6.425c2.809 0 5.127 2.289 5.105 5.084 0 2.817-2.34 5.084-5.194 5.040-2.809-0.044-5.060-2.311-5.060-5.062 0-2.795 2.296-5.062 5.149-5.062zM22.19 18.311c0 0.044-0.022 0.066-0.022 0.11-0.067 0.44-0.29 0.792-0.669 1.034-0.245 0.154-0.513 0.308-0.78 0.44-0.669 0.33-1.382 0.594-2.118 0.77-0.089 0.022-0.089 0.022-0.022 0.088 0.401 0.396 0.825 0.814 1.226 1.211 0.513 0.506 1.048 1.034 1.56 1.541 0.736 0.726 0.535 1.937-0.401 2.377-0.156 0.088-0.334 0.11-0.513 0.154-0.089 0-0.201 0-0.29 0-0.022 0-0.045 0-0.045-0.022-0.357-0.044-0.646-0.22-0.914-0.462-0.892-0.88-1.806-1.783-2.697-2.663-0.067-0.066-0.067-0.066-0.134 0-0.914 0.902-1.806 1.783-2.719 2.685-0.156 0.154-0.312 0.264-0.513 0.352-0.134 0.066-0.29 0.088-0.424 0.11-0.089 0-0.178 0-0.29 0-0.045 0-0.067-0.022-0.111-0.022-0.602-0.11-1.003-0.44-1.181-1.012s-0.045-1.079 0.379-1.497c0.379-0.374 0.736-0.726 1.115-1.101 0.557-0.55 1.115-1.101 1.65-1.629 0.067-0.066 0.067-0.066-0.022-0.088-0.022 0-0.067-0.022-0.089-0.022-1.003-0.242-1.917-0.638-2.786-1.167-0.513-0.33-0.758-0.814-0.691-1.409 0.111-1.101 1.36-1.695 2.296-1.101 0.178 0.11 0.334 0.198 0.535 0.286 1.025 0.506 2.118 0.726 3.255 0.66 0.557-0.022 1.115-0.132 1.672-0.308 0.535-0.176 1.003-0.418 1.493-0.682 0.802-0.462 1.85-0.088 2.162 0.77 0.045 0.132 0.067 0.242 0.089 0.374 0 0.066 0 0.132 0 0.22z"></path>
</symbol>
<symbol id="icon-facebook" viewBox="0 0 32 32">
<path fill="#cdcdcd" style="fill: var(--color2, #cdcdcd)" d="M32 16c0-8.836-7.163-16-16-16s-16 7.164-16 16c0 8.837 7.163 16 16 16s16-7.163 16-16zM20.010 11.015h-2.062c-0.555 0-0.945 0.47-0.945 1.056v0.919h2.945l-0.477 2.983h-2.469v7.996h-3.014v-7.996h-2v-2.983h2v-1.521h0.006c0.053-1.734 0.655-3.385 3.592-3.489v-0.011h2.424v3.046z"></path>
</symbol>
<symbol id="arrow" viewBox="0 0 32 32">
<path fill="none" stroke="#fff" style="stroke: var(--color3, #fff)" stroke-linejoin="round" stroke-linecap="butt" stroke-miterlimit="4" stroke-width="3.5556" d="M8.889 30.222l14.222-14.222-14.222-14.222"></path>
</symbol>
<symbol id="icon-tag" viewBox="0 0 32 32">
<path  d="M10.467 8.096c-0.113-0.113-0.271-0.178-0.431-0.178s-0.318 0.065-0.431 0.178c-0.113 0.113-0.179 0.269-0.179 0.429s0.065 0.316 0.179 0.429c0.113 0.113 0.271 0.178 0.431 0.178s0.317-0.065 0.431-0.178c0.113-0.113 0.179-0.269 0.179-0.429s-0.065-0.316-0.179-0.429z"></path>
<path  d="M31.623 3.019l-0.754-0.75 0.753-0.749c0.238-0.237 0.238-0.621 0-0.857s-0.624-0.237-0.862 0l-0.753 0.749-0.742-0.739c-0.114-0.114-0.269-0.178-0.431-0.178l-10.315-0.006c-0.001 0-0.001 0-0.002 0-0.815 0-1.58 0.315-2.156 0.888l-5.148 5.12c-0.238 0.237-0.238 0.621 0 0.857s0.624 0.237 0.862 0l5.148-5.12c0.346-0.344 0.805-0.533 1.294-0.533 0 0 0.001 0 0.001 0l10.063 0.006 0.565 0.562-2.261 2.249c-0.959-0.571-2.223-0.447-3.049 0.374-0.472 0.469-0.731 1.093-0.731 1.756s0.26 1.287 0.731 1.756c0.487 0.484 1.126 0.726 1.765 0.726s1.279-0.242 1.765-0.726c0.824-0.82 0.95-2.075 0.379-3.028l2.262-2.249 0.575 0.572-0.006 9.995c-0 0.486-0.191 0.943-0.536 1.286l-14.872 14.791c-0.346 0.344-0.805 0.533-1.294 0.533s-0.949-0.189-1.294-0.533l-10.228-10.172c-0.346-0.344-0.536-0.801-0.536-1.287s0.19-0.943 0.536-1.287l6.57-6.534c0.238-0.237 0.238-0.621 0-0.857s-0.624-0.237-0.862 0l-6.57 6.534c-0.576 0.573-0.893 1.334-0.893 2.145s0.317 1.572 0.893 2.145l10.228 10.172c0.595 0.591 1.375 0.887 2.156 0.887s1.562-0.296 2.156-0.887l14.872-14.792c0.576-0.572 0.893-1.333 0.893-2.143l0.006-10.246c0-0.161-0.064-0.315-0.178-0.429zM26.505 7.546c-0.241 0.24-0.562 0.372-0.903 0.372s-0.662-0.132-0.903-0.372c-0.498-0.495-0.498-1.302 0-1.797 0.249-0.248 0.576-0.372 0.903-0.372 0.123 0 0.246 0.018 0.366 0.053l-0.704 0.7c-0.238 0.237-0.238 0.621 0 0.857 0.119 0.118 0.275 0.178 0.431 0.178s0.312-0.059 0.431-0.178l0.701-0.698c0.127 0.432 0.020 0.917-0.322 1.257z"></path>
<path  d="M26.631 12.688l-7.103-7.064c-0.941-0.936-2.472-0.936-3.413 0l-11.24 11.179c-0.456 0.453-0.707 1.056-0.707 1.697s0.251 1.244 0.707 1.697l7.103 7.064c0.456 0.453 1.062 0.703 1.706 0.703s1.251-0.25 1.706-0.703l11.24-11.179c0.456-0.453 0.707-1.056 0.707-1.697s-0.251-1.244-0.707-1.697zM25.769 15.225l-11.24 11.179c-0.226 0.224-0.525 0.348-0.844 0.348s-0.619-0.124-0.844-0.348l-7.103-7.064c-0.226-0.224-0.35-0.523-0.35-0.84s0.124-0.616 0.35-0.84l11.24-11.179c0.233-0.232 0.539-0.347 0.844-0.347s0.612 0.116 0.844 0.347l7.103 7.064c0.226 0.224 0.35 0.523 0.35 0.84s-0.124 0.615-0.35 0.84z"></path>
<path  d="M20.47 12.611c0.238-0.237 0.238-0.62 0-0.857s-0.624-0.237-0.862 0l-0.351 0.349c-0.937-0.576-2.139-0.498-2.899 0.257-0.443 0.441-0.67 1.039-0.638 1.685 0.030 0.624 0.301 1.219 0.761 1.677 0 0 0 0 0 0 0.49 0.488 0.545 1.227 0.122 1.647s-1.166 0.366-1.657-0.121c-0.49-0.488-0.545-1.227-0.122-1.648 0.238-0.237 0.238-0.62 0-0.857s-0.624-0.237-0.862 0c-0.76 0.756-0.838 1.952-0.259 2.884l-0.416 0.414c-0.238 0.237-0.238 0.62 0 0.857 0.119 0.119 0.275 0.178 0.431 0.178s0.312-0.059 0.431-0.178l0.417-0.414c0.409 0.252 0.869 0.379 1.321 0.379 0.582-0 1.15-0.211 1.578-0.636 0.898-0.893 0.844-2.401-0.122-3.362-0-0-0-0-0-0.001-0.245-0.244-0.389-0.556-0.405-0.878-0.015-0.3 0.086-0.573 0.283-0.769 0.423-0.421 1.166-0.366 1.657 0.121 0 0 0 0 0 0s0 0 0 0c0.49 0.488 0.545 1.227 0.122 1.648-0.238 0.237-0.238 0.621 0 0.857 0.119 0.118 0.275 0.178 0.431 0.178s0.312-0.059 0.431-0.178c0.76-0.756 0.838-1.952 0.259-2.884l0.351-0.349z"></path>
<path  d="M14.302 22.66l-3.13-3.113c-0.238-0.236-0.624-0.237-0.862 0s-0.238 0.62 0 0.857l3.13 3.113c0.119 0.118 0.275 0.178 0.431 0.178s0.312-0.059 0.431-0.178c0.238-0.237 0.238-0.62 0-0.857z"></path>
<path  d="M9.502 17.886c-0.113-0.113-0.27-0.178-0.431-0.178s-0.317 0.065-0.431 0.178c-0.113 0.113-0.179 0.269-0.179 0.429s0.065 0.316 0.179 0.428c0.113 0.113 0.271 0.178 0.431 0.178s0.318-0.065 0.431-0.178c0.114-0.113 0.179-0.269 0.179-0.428s-0.065-0.316-0.179-0.429z"></path>
</symbol>
<symbol id="icon-detective" viewBox="0 0 32 32">
<path  d="M15.589 11.029c-0.336 0-0.609 0.274-0.609 0.613s0.273 0.613 0.609 0.613c0.336 0 0.609-0.275 0.609-0.613s-0.273-0.613-0.609-0.613z"></path>
<path  d="M29.352 14.707h-2.369c-1.249-3.59-3.061-9.886-6.345-11.668-1.642-0.89-3.194-0.268-3.778 0.994-0.248 0.537-0.744 0.819-1.27 0.819-0.533 0-1.025-0.289-1.271-0.819-0.563-1.22-2.078-1.898-3.663-1.124-3.336 1.631-5.201 8.18-6.46 11.797h-2.369c-1.009 0-1.827 0.823-1.827 1.839 0 1.014 0.819 1.839 1.827 1.839h27.525c1.009 0 1.827-0.823 1.827-1.839 0-1.014-0.82-1.839-1.827-1.839zM6.336 12.255h6.818c0.336 0 0.609-0.275 0.609-0.613s-0.273-0.613-0.609-0.613h-6.392c1.836-5.105 3.551-6.588 4.427-7.016 0.956-0.467 1.743-0.076 2.026 0.538 0.447 0.966 1.371 1.528 2.375 1.528 1.006 0 1.929-0.564 2.375-1.528 0.292-0.632 1.083-0.982 2.096-0.433 0.88 0.478 2.59 2.010 4.357 6.911h-6.392c-0.336 0-0.609 0.274-0.609 0.613s0.273 0.613 0.609 0.613h6.818c0.308 0.894 0.628 1.816 0.849 2.452h-20.205c0.221-0.635 0.54-1.555 0.849-2.452zM29.352 17.159h-27.525c-0.336 0-0.609-0.275-0.609-0.613s0.273-0.613 0.609-0.613h27.525c0.336 0 0.609 0.275 0.609 0.613s-0.273 0.613-0.609 0.613z"></path>
<path  d="M14.371 20.837h-9.743c-0.336 0-0.609 0.274-0.609 0.613v2.452c0 3.042 2.459 5.517 5.481 5.517 2.29 0 4.316-1.418 5.123-3.554 0.612-0.281 1.322-0.281 1.934 0 0.806 2.136 2.833 3.554 5.123 3.554 3.022 0 5.481-2.475 5.481-5.517v-2.452c0-0.339-0.273-0.613-0.609-0.613h-9.743c-0.336 0-0.609 0.274-0.609 0.613v0.613h-1.218v-0.613c0-0.338-0.273-0.613-0.609-0.613zM9.5 28.193c-2.35 0-4.263-1.925-4.263-4.291v-1.839h8.526v1.839c0 2.372-1.902 4.291-4.263 4.291zM17.416 22.063h8.525v1.839c0 2.366-1.912 4.291-4.263 4.291-2.367 0-4.263-1.925-4.263-4.291v-1.839zM16.198 23.289v0.613c0 0.196 0.011 0.391 0.031 0.585-0.423-0.078-0.857-0.078-1.281 0 0.020-0.194 0.031-0.389 0.031-0.585v-0.613h1.218z"></path>
<path  d="M9.499 25.741c-1.007 0-1.827-0.825-1.827-1.839 0-0.339-0.273-0.613-0.609-0.613s-0.609 0.274-0.609 0.613c0 1.69 1.366 3.065 3.045 3.065 0.336 0 0.609-0.275 0.609-0.613s-0.273-0.613-0.609-0.613z"></path>
<path  d="M21.679 26.967c1.679 0 3.045-1.375 3.045-3.065 0-0.339-0.273-0.613-0.609-0.613s-0.609 0.274-0.609 0.613c0 1.014-0.819 1.839-1.827 1.839-0.336 0-0.609 0.274-0.609 0.613s0.273 0.613 0.609 0.613z"></path>
</symbol>
<symbol id="icon-hired" viewBox="0 0 32 32">
<path  d="M28.236 25.502c0.339-0.474 0.539-1.056 0.539-1.684v-3.756c0-0.345-0.276-0.625-0.617-0.625h-2.759c-1.276 0-2.313 1.050-2.313 2.342v2.039c0 0.628 0.2 1.209 0.539 1.683-0.422 0.069-0.828 0.206-1.207 0.407-0.858-1.296-2.263-2.189-3.878-2.34-0.006-0.002-0.013-0.003-0.019-0.005 0.578-0.653 0.93-1.515 0.93-2.459v-5.104c0-0.345-0.276-0.625-0.617-0.625h-3.75c-1.611 0-2.922 1.327-2.922 2.958v2.771c0 0.944 0.352 1.805 0.93 2.459-0.006 0.002-0.013 0.003-0.019 0.005-1.615 0.151-3.021 1.044-3.878 2.34-0.379-0.2-0.785-0.337-1.207-0.407 0.338-0.474 0.539-1.055 0.539-1.683v-3.756c0-0.345-0.276-0.625-0.617-0.625h-2.759c-1.276 0-2.313 1.050-2.313 2.342v2.039c0 0.628 0.2 1.21 0.539 1.684-1.911 0.316-3.374 1.999-3.374 4.021v1.852c0 0.345 0.276 0.625 0.617 0.625h30.376c0.341 0 0.617-0.28 0.617-0.625v-1.852c0-2.023-1.463-3.705-3.374-4.021zM4.070 21.779c0-0.602 0.484-1.092 1.078-1.092h2.142v0.761c0 0.373-0.3 0.677-0.669 0.677h-2.552v-0.346zM4.070 23.375h2.552c0.235 0 0.46-0.044 0.669-0.123v0.566c0 0.899-0.722 1.63-1.61 1.63s-1.61-0.731-1.61-1.63v-0.443zM6.078 26.698l-0.398 0.403-0.398-0.403h0.796zM8.307 28.858v1.892h-7.072v-1.227c0-1.402 1.014-2.568 2.338-2.788l1.67 1.691c0.116 0.117 0.273 0.183 0.437 0.183s0.321-0.066 0.437-0.183l1.671-1.692c0.295 0.049 0.579 0.145 0.843 0.286-0.209 0.573-0.324 1.192-0.324 1.837zM15.805 23.544c-1.329 0-2.41-1.095-2.41-2.44v-0.826h3.69c0.409 0 0.794-0.106 1.13-0.292v1.118c0 1.345-1.081 2.44-2.41 2.44zM16.881 24.794l-1.076 1.090-1.076-1.090h2.152zM13.395 18.333v0c0-0.942 0.757-1.708 1.688-1.708h3.133v1.259c0 0.631-0.507 1.144-1.131 1.144h-3.69v-0.695zM22.069 30.75h-12.527v-1.25h4.020c0.341 0 0.617-0.28 0.617-0.625s-0.277-0.625-0.617-0.625h-3.975c0.265-1.776 1.669-3.178 3.433-3.418l2.349 2.378c0.121 0.122 0.279 0.183 0.437 0.183s0.316-0.061 0.437-0.183l2.349-2.378c1.961 0.267 3.478 1.97 3.478 4.027v1.892zM24.32 21.779c0-0.602 0.484-1.092 1.078-1.092h2.142v0.761c0 0.373-0.3 0.677-0.669 0.677h-2.552v-0.346zM24.32 23.375h2.552c0.235 0 0.46-0.044 0.669-0.123v0.566c0 0.899-0.722 1.63-1.61 1.63s-1.61-0.731-1.61-1.63v-0.443zM26.328 26.698l-0.398 0.403-0.398-0.403h0.796zM23.303 30.75v-1.892c0-0.646-0.115-1.265-0.324-1.837 0.264-0.141 0.548-0.237 0.843-0.286l1.671 1.692c0.116 0.117 0.273 0.183 0.436 0.183s0.321-0.066 0.437-0.183l1.67-1.691c1.324 0.22 2.338 1.386 2.338 2.788v1.227h-7.072z"></path>
<path  d="M18.848 4.084c-0.241-0.244-0.632-0.244-0.873 0l-3.030 3.067-1.31-1.326c-0.241-0.244-0.632-0.244-0.873-0s-0.241 0.64 0 0.884l1.746 1.768c0.116 0.117 0.273 0.183 0.437 0.183s0.321-0.066 0.437-0.183l3.466-3.509c0.241-0.244 0.241-0.64 0-0.884z"></path>
<path  d="M18.331 0.542c-0.311-0.141-0.677 0.001-0.815 0.316s0.001 0.685 0.312 0.825c1.79 0.808 2.947 2.612 2.947 4.596 0 2.773-2.229 5.030-4.969 5.030s-4.969-2.256-4.969-5.030c0-1.974 1.149-3.774 2.926-4.587 0.311-0.142 0.449-0.512 0.309-0.827s-0.506-0.454-0.817-0.312c-2.219 1.014-3.652 3.262-3.652 5.726-0 3.463 2.783 6.28 6.203 6.28s6.204-2.817 6.204-6.28c0-2.477-1.444-4.729-3.679-5.738z"></path>
<path  d="M15.828 0h-0.022c-0.341 0-0.617 0.28-0.617 0.625s0.277 0.625 0.617 0.625h0.016c0.001 0 0.002 0 0.003 0 0.34 0 0.616-0.278 0.617-0.622 0.002-0.345-0.273-0.626-0.614-0.628z"></path>
<path  d="M16.242 28.433c-0.115-0.116-0.274-0.183-0.436-0.183s-0.322 0.067-0.437 0.183c-0.115 0.116-0.181 0.277-0.181 0.442s0.066 0.326 0.181 0.442c0.115 0.116 0.274 0.183 0.437 0.183s0.322-0.067 0.436-0.183c0.115-0.116 0.181-0.277 0.181-0.442s-0.066-0.326-0.181-0.442z"></path>
</symbol>
<symbol id="icon-stopwatch" viewBox="0 0 32 32">
<path  d="M5.529 10.663l-1.334-1.346c-0.725-0.731-0.725-1.92 0-2.651s1.904-0.731 2.629 0l1.424 1.437c1.486-1.044 3.18-1.766 4.955-2.113v-1.864h-1.239c-0.342 0-0.62-0.28-0.62-0.625v-1.625c0-1.034 0.834-1.875 1.859-1.875h4.958c1.025 0 1.859 0.841 1.859 1.875v1.625c0 0.345-0.277 0.625-0.62 0.625h-1.24v1.864c1.775 0.346 3.469 1.069 4.955 2.113l1.425-1.437c0.725-0.731 1.904-0.731 2.629 0s0.725 1.92 0 2.651l-1.334 1.346c1.849 2.323 2.862 5.217 2.862 8.212 0 7.237-5.839 13.125-13.015 13.125s-13.015-5.888-13.015-13.125c0-2.996 1.012-5.889 2.862-8.212zM5.947 7.549c-0.242-0.244-0.635-0.243-0.876 0s-0.241 0.64 0 0.884l1.281 1.291c0.289-0.299 0.591-0.584 0.906-0.854l-1.31-1.322zM18.781 1.875c0-0.345-0.278-0.625-0.62-0.625h-4.958c-0.342 0-0.62 0.28-0.62 0.625v1h6.198v-1zM14.442 4.125v1.684c0.821-0.078 1.657-0.078 2.479 0v-1.684h-2.479zM26.293 7.549c-0.242-0.243-0.635-0.244-0.876 0l-1.31 1.322c0.315 0.27 0.617 0.555 0.906 0.854l1.281-1.291c0.241-0.244 0.241-0.64 0-0.884zM15.682 30.75c6.493 0 11.775-5.327 11.775-11.875 0-2.888-1.040-5.671-2.928-7.837-0.52-0.596-1.1-1.141-1.725-1.62-1.565-1.201-3.417-1.991-5.356-2.286-0.58-0.088-1.175-0.132-1.767-0.132s-1.187 0.045-1.767 0.132c-1.939 0.295-3.791 1.085-5.356 2.286-0.624 0.479-1.204 1.024-1.724 1.62-1.888 2.165-2.928 4.948-2.928 7.837 0 6.548 5.282 11.875 11.775 11.875z"></path>
<path  d="M15.681 20.75c-1.025 0-1.859-0.841-1.859-1.875 0-0.815 0.518-1.509 1.24-1.768v-4.482c0-0.345 0.277-0.625 0.62-0.625s0.62 0.28 0.62 0.625v4.482c0.721 0.258 1.24 0.953 1.24 1.768 0 1.034-0.834 1.875-1.859 1.875zM15.681 18.25c-0.342 0-0.62 0.28-0.62 0.625s0.278 0.625 0.62 0.625c0.342 0 0.62-0.28 0.62-0.625s-0.278-0.625-0.62-0.625z"></path>
<path  d="M9.079 12.281c0.010-0.011 0.019-0.023 0.030-0.034 0.012-0.012 0.024-0.023 0.036-0.033 1.092-1.090 2.442-1.896 3.906-2.332 0.329-0.098 0.673 0.091 0.77 0.422s-0.091 0.679-0.419 0.776c-1.085 0.323-2.097 0.882-2.96 1.628l0.418 0.422c0.242 0.244 0.242 0.64 0 0.884-0.121 0.122-0.28 0.183-0.438 0.183s-0.317-0.061-0.438-0.183l-0.419-0.423c-1.121 1.315-1.787 2.934-1.917 4.659h0.596c0.342 0 0.62 0.28 0.62 0.625s-0.277 0.625-0.62 0.625h-0.596c0.13 1.725 0.796 3.344 1.917 4.659l0.419-0.423c0.242-0.244 0.635-0.244 0.877 0s0.242 0.64 0 0.884l-0.419 0.423c1.304 1.131 2.909 1.803 4.62 1.934v-0.601c0-0.345 0.277-0.625 0.62-0.625s0.62 0.28 0.62 0.625v0.601c1.711-0.131 3.316-0.802 4.62-1.933l-0.419-0.423c-0.242-0.244-0.242-0.64 0-0.884s0.635-0.244 0.877 0l0.419 0.423c1.121-1.315 1.787-2.934 1.917-4.659h-0.596c-0.342 0-0.62-0.28-0.62-0.625s0.277-0.625 0.62-0.625h0.596c-0.13-1.725-0.796-3.344-1.917-4.659l-0.419 0.423c-0.121 0.122-0.28 0.183-0.438 0.183s-0.317-0.061-0.439-0.183c-0.242-0.244-0.242-0.64 0-0.884l0.418-0.422c-0.863-0.746-1.875-1.304-2.96-1.628-0.328-0.098-0.516-0.445-0.419-0.776s0.441-0.52 0.77-0.422c1.464 0.436 2.813 1.242 3.905 2.331 0.013 0.011 0.025 0.022 0.037 0.034 0.011 0.011 0.020 0.022 0.030 0.033 1.738 1.769 2.695 4.109 2.695 6.594s-0.957 4.825-2.694 6.594c-0.010 0.011-0.019 0.023-0.030 0.034s-0.022 0.021-0.033 0.030c-1.754 1.752-4.074 2.717-6.539 2.717s-4.784-0.965-6.538-2.717c-0.011-0.010-0.023-0.020-0.033-0.031s-0.020-0.022-0.030-0.033c-1.738-1.769-2.695-4.109-2.695-6.594s0.957-4.825 2.694-6.594z"></path>
<path  d="M15.681 10.75c-0.342 0-0.62-0.28-0.62-0.625s0.278-0.625 0.62-0.625c0.342 0 0.62 0.28 0.62 0.625s-0.278 0.625-0.62 0.625z"></path>
</symbol>
<symbol id="icon-envelope" viewBox="0 0 32 32">
<path fill="#00b2ff" style="fill: var(--color1, #00b2ff)" d="M27.373 4.308h-23.56c-2.103 0-3.813 1.655-3.813 3.692v15.591c0 2.036 1.71 3.692 3.813 3.692h23.554c2.103 0 3.813-1.655 3.813-3.692v-15.585c0.007-2.036-1.703-3.698-3.806-3.698zM29.444 23.59c0 1.106-0.929 2.005-2.071 2.005h-23.56c-1.142 0-2.071-0.9-2.071-2.005v-15.585c0-1.106 0.929-2.005 2.071-2.005h23.554c1.142 0 2.071 0.899 2.071 2.005v15.585h0.006z"></path>
<path fill="#00b2ff" style="fill: var(--color1, #00b2ff)" d="M19.664 15.601l7.625-6.621c0.355-0.312 0.387-0.843 0.064-1.193-0.322-0.344-0.871-0.375-1.232-0.062l-10.516 9.139-2.051-1.774c-0.007-0.006-0.013-0.012-0.013-0.019-0.045-0.044-0.090-0.081-0.142-0.119l-8.348-7.233c-0.361-0.312-0.91-0.281-1.232 0.069s-0.29 0.881 0.071 1.193l7.716 6.677-7.684 6.965c-0.348 0.319-0.368 0.85-0.039 1.193 0.174 0.175 0.406 0.269 0.639 0.269 0.213 0 0.426-0.075 0.594-0.225l7.8-7.065 2.116 1.83c0.168 0.144 0.374 0.212 0.581 0.212s0.419-0.075 0.581-0.219l2.174-1.886 7.755 7.133c0.168 0.156 0.387 0.231 0.6 0.231 0.232 0 0.458-0.087 0.632-0.262 0.329-0.337 0.316-0.874-0.032-1.193l-7.658-7.040z"></path>
</symbol>
<symbol id="icon-brain" viewBox="0 0 32 32">
<path fill="#00b2ff" style="fill: var(--color1, #00b2ff)" d="M19.733 8.533c0.694 0 1.281 0.447 1.502 1.067h5.53c0.221-0.619 0.808-1.067 1.502-1.067 0.882 0 1.6 0.718 1.6 1.6s-0.718 1.6-1.6 1.6c-0.694 0-1.281-0.447-1.502-1.067h-5.53c-0.221 0.619-0.808 1.067-1.502 1.067-0.882 0-1.6-0.718-1.6-1.6s0.718-1.6 1.601-1.6zM28.267 10.667c0.294 0 0.533-0.239 0.533-0.533s-0.239-0.533-0.533-0.533-0.533 0.239-0.533 0.533c0 0.294 0.239 0.533 0.533 0.533zM19.733 10.667c0.294 0 0.533-0.239 0.533-0.533s-0.239-0.533-0.533-0.533c-0.294 0-0.533 0.239-0.533 0.533s0.239 0.533 0.533 0.533z"></path>
<path fill="#00b2ff" style="fill: var(--color1, #00b2ff)" d="M15.467 11.831v-3.298c0-0.142 0.056-0.277 0.156-0.377l2.133-2.133c0.1-0.1 0.236-0.156 0.377-0.156h1.698c0.221-0.619 0.808-1.067 1.502-1.067 0.882 0 1.6 0.718 1.6 1.6s-0.718 1.6-1.6 1.6c-0.694 0-1.281-0.447-1.502-1.067h-1.477l-1.821 1.821v3.077c0.619 0.221 1.067 0.807 1.067 1.502 0 0.882-0.718 1.6-1.6 1.6s-1.6-0.718-1.6-1.6c0-0.694 0.447-1.281 1.067-1.502zM21.333 6.933c0.294 0 0.533-0.239 0.533-0.533s-0.239-0.533-0.533-0.533c-0.294 0-0.533 0.239-0.533 0.533s0.239 0.533 0.533 0.533zM16 13.866c0.294 0 0.533-0.239 0.533-0.533s-0.239-0.533-0.533-0.533c-0.294 0-0.533 0.239-0.533 0.533s0.239 0.533 0.533 0.533z"></path>
<path fill="#00b2ff" style="fill: var(--color1, #00b2ff)" d="M5.867 13.866c0.246 0 0.477 0.060 0.685 0.161l0.915-0.915v-5.112c0-0.142 0.056-0.277 0.156-0.377l5.338-5.338c-0.1-0.209-0.161-0.439-0.161-0.685 0-0.882 0.718-1.6 1.6-1.6s1.6 0.718 1.6 1.6c0 0.882-0.718 1.6-1.6 1.6-0.246 0-0.477-0.060-0.685-0.161l-5.181 5.181v5.112c0 0.142-0.056 0.277-0.156 0.377l-1.071 1.071c0.1 0.209 0.161 0.439 0.161 0.685 0 0.882-0.718 1.6-1.6 1.6s-1.6-0.718-1.6-1.6c0-0.882 0.718-1.6 1.6-1.6zM14.4 2.133c0.294 0 0.533-0.239 0.533-0.533s-0.239-0.533-0.533-0.533c-0.294 0-0.533 0.239-0.533 0.533s0.239 0.533 0.533 0.533zM5.867 16c0.294 0 0.533-0.239 0.533-0.533s-0.239-0.533-0.533-0.533c-0.294 0-0.533 0.239-0.533 0.533s0.239 0.533 0.533 0.533z"></path>
<path fill="#00b2ff" style="fill: var(--color1, #00b2ff)" d="M1.067 7.565v-2.231c0-0.142 0.056-0.277 0.156-0.377l3.733-3.733c0.1-0.1 0.236-0.156 0.377-0.156h2.765c0.221-0.619 0.807-1.067 1.502-1.067 0.882 0 1.6 0.718 1.6 1.6s-0.718 1.6-1.6 1.6c-0.694 0-1.281-0.447-1.502-1.067h-2.544l-3.421 3.421v2.011c0.619 0.221 1.067 0.807 1.067 1.502 0 0.882-0.718 1.6-1.6 1.6s-1.6-0.718-1.6-1.6c0-0.694 0.447-1.281 1.067-1.502zM9.6 2.133c0.294 0 0.533-0.239 0.533-0.533s-0.239-0.533-0.533-0.533c-0.294 0-0.533 0.239-0.533 0.533s0.239 0.533 0.533 0.533zM1.6 9.6c0.294 0 0.533-0.239 0.533-0.533s-0.239-0.533-0.533-0.533c-0.294 0-0.533 0.239-0.533 0.533s0.239 0.533 0.533 0.533z"></path>
<path fill="#00b2ff" style="fill: var(--color1, #00b2ff)" d="M8.533 28.898v-7.663c-0.619-0.221-1.066-0.808-1.066-1.502 0-0.882 0.718-1.6 1.6-1.6 0.694 0 1.281 0.447 1.502 1.067h5.53c0.221-0.619 0.808-1.067 1.502-1.067s1.281 0.447 1.502 1.067h3.077l1.981-1.981c-0.1-0.209-0.16-0.439-0.16-0.685 0-0.882 0.718-1.6 1.6-1.6s1.6 0.718 1.6 1.6c0 0.882-0.718 1.6-1.6 1.6-0.246 0-0.477-0.060-0.685-0.161l-2.138 2.138c-0.1 0.1-0.236 0.156-0.377 0.156h-3.298c-0.221 0.619-0.808 1.067-1.502 1.067s-1.281-0.448-1.502-1.067h-5.53c-0.161 0.452-0.517 0.807-0.969 0.968v7.663c0.619 0.221 1.067 0.807 1.067 1.502 0 0.882-0.718 1.6-1.6 1.6s-1.6-0.718-1.6-1.6c0-0.694 0.447-1.281 1.067-1.502zM25.6 17.066c0.294 0 0.533-0.239 0.533-0.533s-0.239-0.533-0.533-0.533c-0.294 0-0.533 0.239-0.533 0.533s0.239 0.533 0.533 0.533zM17.6 20.266c0.294 0 0.533-0.239 0.533-0.533s-0.239-0.533-0.533-0.533c-0.294 0-0.533 0.239-0.533 0.533s0.239 0.533 0.533 0.533zM9.067 30.933c0.294 0 0.533-0.239 0.533-0.533s-0.239-0.533-0.533-0.533c-0.294 0-0.533 0.239-0.533 0.533s0.239 0.533 0.533 0.533zM9.067 20.266c0.294 0 0.533-0.239 0.533-0.533s-0.239-0.533-0.533-0.533c-0.294 0-0.533 0.239-0.533 0.533s0.239 0.533 0.533 0.533z"></path>
<path fill="#00b2ff" style="fill: var(--color1, #00b2ff)" d="M11.2 10.765v-1.698c0-0.142 0.056-0.277 0.156-0.377l6.404-6.404c-0.1-0.209-0.16-0.439-0.16-0.685 0-0.882 0.718-1.6 1.6-1.6 0.694 0 1.281 0.447 1.502 1.067h2.232c0.294 0 0.533 0.238 0.533 0.533v1.379l1.981 1.981c0.209-0.1 0.439-0.161 0.685-0.161 0.882 0 1.6 0.718 1.6 1.6s-0.718 1.6-1.6 1.6c-0.882 0-1.6-0.718-1.6-1.6 0-0.246 0.060-0.477 0.16-0.685l-2.138-2.138c-0.1-0.1-0.156-0.235-0.156-0.377v-1.067h-1.698c-0.221 0.619-0.807 1.067-1.502 1.067-0.246 0-0.477-0.060-0.685-0.161l-6.248 6.248v1.477c0.619 0.221 1.067 0.807 1.067 1.502 0 0.882-0.718 1.6-1.6 1.6s-1.6-0.718-1.6-1.6c0-0.694 0.447-1.281 1.067-1.502zM26.133 6.933c0.294 0 0.533-0.239 0.533-0.533s-0.239-0.533-0.533-0.533c-0.294 0-0.533 0.239-0.533 0.533s0.239 0.533 0.533 0.533zM19.2 2.133c0.294 0 0.533-0.239 0.533-0.533s-0.239-0.533-0.533-0.533c-0.294 0-0.533 0.239-0.533 0.533s0.239 0.533 0.533 0.533zM11.733 12.8c0.294 0 0.533-0.239 0.533-0.533s-0.239-0.533-0.533-0.533c-0.294 0-0.533 0.239-0.533 0.533s0.239 0.533 0.533 0.533z"></path>
<path fill="#00b2ff" style="fill: var(--color1, #00b2ff)" d="M12.8 14.933c0.694 0 1.281 0.447 1.502 1.067h6.277l3.044-3.044c0.1-0.1 0.236-0.156 0.377-0.156h5.646l1.287-1.287v-4.358l-4.115-4.115c-0.209 0.1-0.439 0.161-0.685 0.161-0.882 0-1.6-0.718-1.6-1.6s0.718-1.6 1.6-1.6c0.882 0 1.6 0.718 1.6 1.6 0 0.246-0.060 0.477-0.16 0.685l4.271 4.271c0.1 0.1 0.156 0.235 0.156 0.377v4.8c0 0.142-0.056 0.277-0.156 0.377l-1.6 1.6c-0.1 0.1-0.236 0.156-0.377 0.156h-5.646l-3.044 3.044c-0.1 0.1-0.236 0.156-0.377 0.156h-6.498c-0.221 0.619-0.807 1.067-1.502 1.067-0.882 0-1.6-0.718-1.6-1.6s0.718-1.6 1.6-1.6zM26.133 1.067c-0.294 0-0.533 0.239-0.533 0.533s0.239 0.533 0.533 0.533c0.294 0 0.533-0.239 0.533-0.533s-0.239-0.533-0.533-0.533zM12.8 17.066c0.294 0 0.533-0.239 0.533-0.533s-0.239-0.533-0.533-0.533c-0.294 0-0.533 0.239-0.533 0.533s0.239 0.533 0.533 0.533z"></path>
<path fill="#00b2ff" style="fill: var(--color1, #00b2ff)" d="M1.6 12.8c0.246 0 0.477 0.060 0.685 0.161l1.981-1.981v-3.077c-0.619-0.221-1.067-0.807-1.067-1.502 0-0.882 0.718-1.6 1.6-1.6s1.6 0.718 1.6 1.6c0 0.694-0.447 1.281-1.067 1.502v3.298c0 0.142-0.056 0.277-0.156 0.377l-2.138 2.138c0.1 0.209 0.161 0.439 0.161 0.685 0 0.694-0.447 1.281-1.067 1.502v0.411l4.11 4.11c0.1 0.1 0.156 0.235 0.156 0.377v0.631c0.619 0.221 1.067 0.807 1.067 1.502s-0.447 1.281-1.067 1.502v1.263c0.619 0.221 1.067 0.808 1.067 1.502 0 0.882-0.718 1.6-1.6 1.6s-1.6-0.718-1.6-1.6c0-0.694 0.447-1.281 1.067-1.502v-1.263c-0.619-0.221-1.067-0.808-1.067-1.502s0.447-1.281 1.067-1.502v-0.411l-4.11-4.11c-0.1-0.1-0.156-0.235-0.156-0.377v-0.631c-0.619-0.221-1.067-0.807-1.067-1.502 0-0.882 0.718-1.6 1.6-1.6zM4.8 6.933c0.294 0 0.533-0.239 0.533-0.533s-0.239-0.533-0.533-0.533c-0.294 0-0.533 0.239-0.533 0.533s0.239 0.533 0.533 0.533zM5.867 27.733c0.294 0 0.533-0.239 0.533-0.533s-0.239-0.533-0.533-0.533c-0.294 0-0.533 0.239-0.533 0.533s0.239 0.533 0.533 0.533zM5.867 23.466c0.294 0 0.533-0.239 0.533-0.533s-0.239-0.533-0.533-0.533c-0.294 0-0.533 0.239-0.533 0.533s0.239 0.533 0.533 0.533zM1.6 14.933c0.294 0 0.533-0.239 0.533-0.533s-0.239-0.533-0.533-0.533c-0.294 0-0.533 0.239-0.533 0.533s0.239 0.533 0.533 0.533z"></path>
</symbol>
</defs>
</svg>
